Coordinates
version=1
nRows=10
nColumns=40
inDegrees=yes

Units are S.I. units (second, meters, Newtons, ...)
If the header above contains a line with 'inDegrees', this indicates whether rotational values are in degrees (yes) or radians (no).

endheader
time	pelvis_tilt	pelvis_list	pelvis_rotation	pelvis_tx	pelvis_ty	pelvis_tz	hip_flexion_r	hip_adduction_r	hip_rotation_r	knee_angle_r	knee_angle_r_beta	ankle_angle_r	subtalar_angle_r	mtp_angle_r	hip_flexion_l	hip_adduction_l	hip_rotation_l	knee_angle_l	knee_angle_l_beta	ankle_angle_l	subtalar_angle_l	mtp_angle_l	lumbar_extension	lumbar_bending	lumbar_rotation	arm_flex_r	arm_add_r	arm_rot_r	elbow_flex_r	pro_sup_r	wrist_flex_r	wrist_dev_r	arm_flex_l	arm_add_l	arm_rot_l	elbow_flex_l	pro_sup_l	wrist_flex_l	wrist_dev_l
      0.48000000	      3.49863097	    -12.16598331	     89.86645971	      0.18454724	      0.91700536	      1.39289744	     21.60340396	      8.48443131	      3.98324698	     10.71556465	      0.18702188	      3.36998047	      0.00000000	      0.00000000	     25.40334951	     -3.53993040	      2.06004262	     62.88136581	      1.09748687	     -2.52884872	      0.00000000	      0.00000000	      7.63320659	      2.29834683	      4.71939751	      0.00000000	      0.00000000	      0.00000000	      0.00000000	      0.00000000	      0.00000000	      0.00000000	      0.00000000	      0.00000000	      0.00000000	      0.00000000	      0.00000000	      0.00000000	      0.00000000
      0.49000000	      3.00473665	    -12.41175171	     89.87245946	      0.18482402	      0.91922048	      1.37551577	     19.84410496	      8.00072524	      4.68230342	      9.26655115	      0.16173183	      3.66674836	      0.00000000	      0.00000000	     27.77246284	     -2.92805015	      1.90667460	     62.27600095	      1.08692126	     -0.69112164	      0.00000000	      0.00000000	      7.85585774	      1.62869443	      4.96843621	      0.00000000	      0.00000000	      0.00000000	      0.00000000	      0.00000000	      0.00000000	      0.00000000	      0.00000000	      0.00000000	      0.00000000	      0.00000000	      0.00000000	      0.00000000	      0.00000000
      0.50000000	      2.50026309	    -12.59281180	     89.87707807	      0.18508038	      0.92102191	      1.35808124	     18.03522587	      7.48634508	      5.26058059	      7.82817557	      0.13662744	      4.00754806	      0.00000000	      0.00000000	     29.91844507	     -2.35243183	      1.65359938	     61.20326291	      1.06819845	      0.86638957	      0.00000000	      0.00000000	      8.00274670	      0.96057570	      5.21342961	      0.00000000	      0.00000000	      0.00000000	      0.00000000	      0.00000000	      0.00000000	      0.00000000	      0.00000000	      0.00000000	      0.00000000	      0.00000000	      0.00000000	      0.00000000	      0.00000000
      0.51000000	      1.98174706	    -12.78920045	     89.88201197	      0.18525693	      0.92224104	      1.34067343	     16.35042790	      6.94412714	      5.71141726	      6.56787180	      0.11463099	      4.42646301	      0.00000000	      0.00000000	     31.92723582	     -1.80290058	      1.30305018	     59.69993672	      1.04196046	      2.05281547	      0.00000000	      0.00000000	      8.15709577	      0.29135322	      5.40195734	      0.00000000	      0.00000000	      0.00000000	      0.00000000	      0.00000000	      0.00000000	      0.00000000	      0.00000000	      0.00000000	      0.00000000	      0.00000000	      0.00000000	      0.00000000	      0.00000000
      0.52000000	      1.56656851	    -12.71943313	     89.88336984	      0.18551121	      0.92321178	      1.32302182	     14.35107675	      6.52553549	      6.17836958	      5.27055245	      0.09198849	      4.84109184	      0.00000000	      0.00000000	     33.48722665	     -1.42492131	      0.88345324	     57.83628608	      1.00943362	      3.14835512	      0.00000000	      0.00000000	      7.99385668	     -0.26567761	      5.60376554	      0.00000000	      0.00000000	      0.00000000	      0.00000000	      0.00000000	      0.00000000	      0.00000000	      0.00000000	      0.00000000	      0.00000000	      0.00000000	      0.00000000	      0.00000000	      0.00000000
      0.53000000	      1.17827492	    -12.90096538	     89.88472738	      0.18573476	      0.92315327	      1.30560558	     12.81568196	      6.13986290	      6.36529887	      4.29862574	      0.07502517	      5.39408778	      0.00000000	      0.00000000	     35.21195126	     -1.09071300	      0.43037530	     55.66914112	      0.97160980	      3.89617196	      0.00000000	      0.00000000	      8.11501464	     -0.78359405	      5.74145281	      0.00000000	      0.00000000	      0.00000000	      0.00000000	      0.00000000	      0.00000000	      0.00000000	      0.00000000	      0.00000000	      0.00000000	      0.00000000	      0.00000000	      0.00000000	      0.00000000
      0.54000000	      0.91875426	    -12.62653284	     89.88363258	      0.18600969	      0.92311915	      1.28775814	     10.70356208	      5.90850299	      6.69000572	      3.21363723	      0.05608855	      5.94616216	      0.00000000	      0.00000000	     36.24238708	     -0.94705129	     -0.09885597	     53.13448158	      0.92737165	      4.57061352	      0.00000000	      0.00000000	      7.70738619	     -1.14078123	      5.88946701	      0.00000000	      0.00000000	      0.00000000	      0.00000000	      0.00000000	      0.00000000	      0.00000000	      0.00000000	      0.00000000	      0.00000000	      0.00000000	      0.00000000	      0.00000000	      0.00000000
      0.55000000	      0.74739896	    -12.65070327	     89.88241837	      0.18629857	      0.92195791	      1.27013846	      9.07040864	      5.78467280	      6.76628134	      2.39949806	      0.04187914	      6.61100308	      0.00000000	      0.00000000	     37.52056822	     -0.90099135	     -0.63748566	     50.39266530	      0.87951793	      5.03798646	      0.00000000	      0.00000000	      7.63805137	     -1.40211977	      5.97300833	      0.00000000	      0.00000000	      0.00000000	      0.00000000	      0.00000000	      0.00000000	      0.00000000	      0.00000000	      0.00000000	      0.00000000	      0.00000000	      0.00000000	      0.00000000	      0.00000000
      0.56000000	      0.67874231	    -12.21864491	     89.87865307	      0.18658450	      0.92084279	      1.25209795	      6.85994010	      5.77214040	      6.98551182	      1.48551758	      0.02592717	      7.27816602	      0.00000000	      0.00000000	     38.11926223	     -0.98837062	     -1.26240323	     47.32225296	      0.82592912	      5.30822093	      0.00000000	      0.00000000	      7.03449635	     -1.52411840	      6.07642083	      0.00000000	      0.00000000	      0.00000000	      0.00000000	      0.00000000	      0.00000000	      0.00000000	      0.00000000	      0.00000000	      0.00000000	      0.00000000	      0.00000000	      0.00000000	      0.00000000
      0.57000000	      0.71446771	    -12.07831411	     89.87372156	      0.18684761	      0.91867113	      1.23421601	      5.06358843	      5.86763209	      7.07815972	      0.75149527	      0.01311607	      7.99576781	      0.00000000	      0.00000000	     38.97216752	     -1.17790799	     -1.91815174	     44.08733348	      0.76946913	      5.45568077	      0.00000000	      0.00000000	      6.77629915	     -1.51884281	      6.10148176	      0.00000000	      0.00000000	      0.00000000	      0.00000000	      0.00000000	      0.00000000	      0.00000000	      0.00000000	      0.00000000	      0.00000000	      0.00000000	      0.00000000	      0.00000000	      0.00000000
